<svg xmlns="http://www.w3.org/2000/svg" xmlns:xlink="http://www.w3.org/1999/xlink" width="3456" zoomAndPan="magnify" viewBox="0 0 2592 3455.999975" height="4608" preserveAspectRatio="xMidYMid meet" version="1.0"><path fill="#b88dbb" d="M 796.277344 1305.871094 C 795.089844 1304.644531 793.964844 1303.363281 792.902344 1302.03125 C 791.839844 1300.695312 790.84375 1299.3125 789.917969 1297.882812 C 788.988281 1296.449219 788.132812 1294.976562 787.347656 1293.464844 C 786.5625 1291.949219 785.855469 1290.398438 785.222656 1288.816406 C 784.585938 1287.234375 784.03125 1285.621094 783.554688 1283.984375 C 783.078125 1282.347656 782.679688 1280.691406 782.363281 1279.015625 C 782.046875 1277.339844 781.8125 1275.652344 781.660156 1273.953125 C 781.507812 1272.253906 781.4375 1270.550781 781.453125 1268.847656 C 781.464844 1267.140625 781.5625 1265.441406 781.738281 1263.742188 C 781.917969 1262.046875 782.179688 1260.363281 782.519531 1258.691406 C 782.863281 1257.023438 783.285156 1255.371094 783.789062 1253.742188 C 784.289062 1252.113281 784.871094 1250.511719 785.53125 1248.9375 C 786.1875 1247.363281 786.921875 1245.824219 787.730469 1244.324219 C 788.539062 1242.820312 789.417969 1241.363281 790.367188 1239.945312 C 791.316406 1238.527344 792.332031 1237.160156 793.414062 1235.84375 C 794.5 1234.527344 795.644531 1233.261719 796.847656 1232.058594 C 798.054688 1230.851562 799.316406 1229.703125 800.632812 1228.621094 C 801.949219 1227.535156 803.316406 1226.519531 804.730469 1225.566406 C 806.148438 1224.617188 807.605469 1223.738281 809.105469 1222.925781 C 810.609375 1222.117188 812.144531 1221.382812 813.71875 1220.722656 C 815.289062 1220.0625 816.890625 1219.480469 818.523438 1218.976562 C 820.152344 1218.472656 821.800781 1218.050781 823.472656 1217.707031 C 825.140625 1217.363281 826.824219 1217.101562 828.523438 1216.921875 C 830.21875 1216.742188 831.917969 1216.644531 833.625 1216.628906 C 835.328125 1216.613281 837.03125 1216.683594 838.730469 1216.832031 C 840.429688 1216.984375 842.117188 1217.214844 843.792969 1217.53125 C 845.46875 1217.847656 847.128906 1218.242188 848.765625 1218.71875 C 850.402344 1219.195312 852.015625 1219.746094 853.597656 1220.378906 C 855.183594 1221.011719 856.730469 1221.722656 858.246094 1222.503906 C 859.761719 1223.289062 861.234375 1224.144531 862.667969 1225.070312 C 864.097656 1225.996094 865.484375 1226.988281 866.816406 1228.050781 C 868.152344 1229.113281 869.433594 1230.234375 870.660156 1231.421875 L 1294.246094 1654.941406 L 1717.832031 1231.421875 C 1719.050781 1230.203125 1720.324219 1229.046875 1721.660156 1227.953125 C 1722.992188 1226.859375 1724.375 1225.832031 1725.808594 1224.875 C 1727.242188 1223.917969 1728.71875 1223.03125 1730.238281 1222.21875 C 1731.757812 1221.40625 1733.316406 1220.667969 1734.910156 1220.007812 C 1736.503906 1219.351562 1738.125 1218.769531 1739.773438 1218.269531 C 1741.421875 1217.769531 1743.09375 1217.351562 1744.785156 1217.015625 C 1746.476562 1216.675781 1748.179688 1216.425781 1749.894531 1216.257812 C 1751.609375 1216.085938 1753.332031 1216.003906 1755.054688 1216.003906 C 1756.777344 1216.003906 1758.5 1216.085938 1760.214844 1216.257812 C 1761.929688 1216.425781 1763.632812 1216.675781 1765.324219 1217.015625 C 1767.015625 1217.351562 1768.6875 1217.769531 1770.335938 1218.269531 C 1771.984375 1218.769531 1773.605469 1219.351562 1775.199219 1220.007812 C 1776.792969 1220.667969 1778.351562 1221.40625 1779.871094 1222.21875 C 1781.390625 1223.03125 1782.867188 1223.917969 1784.300781 1224.875 C 1785.734375 1225.832031 1787.117188 1226.859375 1788.449219 1227.953125 C 1789.785156 1229.046875 1791.058594 1230.203125 1792.277344 1231.421875 C 1793.5 1232.640625 1794.65625 1233.917969 1795.75 1235.25 C 1796.84375 1236.582031 1797.867188 1237.964844 1798.824219 1239.398438 C 1799.785156 1240.832031 1800.667969 1242.308594 1801.480469 1243.828125 C 1802.292969 1245.351562 1803.03125 1246.90625 1803.691406 1248.5 C 1804.351562 1250.09375 1804.929688 1251.714844 1805.429688 1253.363281 C 1805.929688 1255.015625 1806.351562 1256.683594 1806.6875 1258.375 C 1807.023438 1260.066406 1807.273438 1261.769531 1807.445312 1263.484375 C 1807.613281 1265.203125 1807.699219 1266.921875 1807.699219 1268.644531 C 1807.699219 1270.371094 1807.613281 1272.089844 1807.445312 1273.804688 C 1807.273438 1275.519531 1807.023438 1277.222656 1806.6875 1278.914062 C 1806.351562 1280.605469 1805.929688 1282.277344 1805.429688 1283.925781 C 1804.929688 1285.578125 1804.351562 1287.199219 1803.691406 1288.789062 C 1803.03125 1290.382812 1802.292969 1291.941406 1801.480469 1293.460938 C 1800.667969 1294.980469 1799.785156 1296.457031 1798.824219 1297.890625 C 1797.867188 1299.324219 1796.84375 1300.707031 1795.75 1302.042969 C 1794.65625 1303.375 1793.5 1304.648438 1792.277344 1305.871094 L 1368.695312 1729.453125 L 1792.277344 2153.039062 C 1793.5 2154.257812 1794.65625 2155.535156 1795.75 2156.867188 C 1796.84375 2158.199219 1797.867188 2159.582031 1798.824219 2161.015625 C 1799.785156 2162.449219 1800.667969 2163.925781 1801.480469 2165.449219 C 1802.292969 2166.96875 1803.03125 2168.523438 1803.691406 2170.117188 C 1804.351562 2171.710938 1804.929688 2173.332031 1805.429688 2174.980469 C 1805.929688 2176.632812 1806.351562 2178.300781 1806.6875 2179.992188 C 1807.023438 2181.683594 1807.273438 2183.386719 1807.445312 2185.105469 C 1807.613281 2186.820312 1807.699219 2188.539062 1807.699219 2190.265625 C 1807.699219 2191.988281 1807.613281 2193.707031 1807.445312 2195.421875 C 1807.273438 2197.140625 1807.023438 2198.84375 1806.6875 2200.535156 C 1806.351562 2202.226562 1805.929688 2203.894531 1805.429688 2205.546875 C 1804.929688 2207.195312 1804.351562 2208.816406 1803.691406 2210.410156 C 1803.03125 2212.003906 1802.292969 2213.558594 1801.480469 2215.078125 C 1800.667969 2216.601562 1799.785156 2218.078125 1798.824219 2219.511719 C 1797.867188 2220.945312 1796.84375 2222.328125 1795.75 2223.660156 C 1794.65625 2224.992188 1793.5 2226.269531 1792.277344 2227.488281 C 1791.058594 2228.707031 1789.785156 2229.863281 1788.449219 2230.957031 C 1787.117188 2232.050781 1785.734375 2233.078125 1784.300781 2234.035156 C 1782.867188 2234.992188 1781.390625 2235.878906 1779.871094 2236.691406 C 1778.351562 2237.503906 1776.792969 2238.238281 1775.199219 2238.898438 C 1773.605469 2239.558594 1771.984375 2240.140625 1770.335938 2240.640625 C 1768.6875 2241.140625 1767.015625 2241.558594 1765.324219 2241.894531 C 1763.632812 2242.230469 1761.929688 2242.484375 1760.214844 2242.652344 C 1758.5 2242.820312 1756.777344 2242.90625 1755.054688 2242.90625 C 1753.332031 2242.90625 1751.609375 2242.820312 1749.894531 2242.652344 C 1748.179688 2242.484375 1746.476562 2242.230469 1744.785156 2241.894531 C 1743.09375 2241.558594 1741.421875 2241.140625 1739.773438 2240.640625 C 1738.125 2240.140625 1736.503906 2239.558594 1734.910156 2238.898438 C 1733.316406 2238.238281 1731.757812 2237.503906 1730.238281 2236.691406 C 1728.71875 2235.878906 1727.242188 2234.992188 1725.808594 2234.035156 C 1724.375 2233.078125 1722.992188 2232.050781 1721.660156 2230.957031 C 1720.324219 2229.863281 1719.050781 2228.707031 1717.832031 2227.488281 L 1294.246094 1803.839844 L 870.660156 2227.421875 C 869.433594 2228.609375 868.15625 2229.734375 866.820312 2230.796875 C 865.488281 2231.859375 864.105469 2232.855469 862.671875 2233.78125 C 861.242188 2234.710938 859.769531 2235.566406 858.253906 2236.351562 C 856.738281 2237.136719 855.191406 2237.84375 853.605469 2238.480469 C 852.023438 2239.113281 850.414062 2239.667969 848.777344 2240.144531 C 847.136719 2240.625 845.480469 2241.019531 843.804688 2241.335938 C 842.128906 2241.652344 840.441406 2241.886719 838.742188 2242.039062 C 837.042969 2242.191406 835.34375 2242.261719 833.636719 2242.246094 C 831.929688 2242.234375 830.230469 2242.140625 828.535156 2241.960938 C 826.839844 2241.78125 825.15625 2241.519531 823.484375 2241.179688 C 821.8125 2240.835938 820.164062 2240.414062 818.53125 2239.910156 C 816.902344 2239.410156 815.300781 2238.828125 813.726562 2238.167969 C 812.152344 2237.511719 810.617188 2236.777344 809.113281 2235.96875 C 807.613281 2235.160156 806.152344 2234.28125 804.738281 2233.332031 C 803.320312 2232.382812 801.953125 2231.367188 800.632812 2230.285156 C 799.316406 2229.199219 798.054688 2228.058594 796.847656 2226.851562 C 795.640625 2225.644531 794.496094 2224.382812 793.414062 2223.066406 C 792.328125 2221.75 791.3125 2220.382812 790.359375 2218.96875 C 789.410156 2217.554688 788.527344 2216.09375 787.71875 2214.59375 C 786.910156 2213.089844 786.175781 2211.554688 785.515625 2209.980469 C 784.855469 2208.410156 784.273438 2206.808594 783.769531 2205.179688 C 783.265625 2203.550781 782.839844 2201.898438 782.496094 2200.226562 C 782.152344 2198.558594 781.890625 2196.875 781.710938 2195.179688 C 781.53125 2193.480469 781.433594 2191.78125 781.417969 2190.074219 C 781.40625 2188.371094 781.472656 2186.667969 781.625 2184.96875 C 781.773438 2183.269531 782.007812 2181.582031 782.324219 2179.90625 C 782.636719 2178.230469 783.03125 2176.574219 783.507812 2174.933594 C 783.984375 2173.296875 784.539062 2171.6875 785.171875 2170.101562 C 785.804688 2168.519531 786.511719 2166.96875 787.296875 2165.453125 C 788.078125 2163.9375 788.933594 2162.464844 789.859375 2161.03125 C 790.789062 2159.601562 791.78125 2158.21875 792.84375 2156.882812 C 793.902344 2155.546875 795.027344 2154.265625 796.210938 2153.039062 L 1219.796875 1729.453125 Z M 796.277344 1305.871094 " fill-opacity="1" fill-rule="evenodd"/></svg>