<svg xmlns="http://www.w3.org/2000/svg" xmlns:xlink="http://www.w3.org/1999/xlink" width="3456" zoomAndPan="magnify" viewBox="0 0 2592 3455.999975" height="4608" preserveAspectRatio="xMidYMid meet" version="1.0"><defs><clipPath id="035b921755"><path d="M 853 1650 L 1863 1650 L 1863 1802.964844 L 853 1802.964844 Z M 853 1650 " clip-rule="nonzero"/></clipPath></defs><path fill="#b88dbb" d="M 1786.945312 1224.699219 L 929.925781 1224.699219 C 887.738281 1224.699219 853.539062 1190.492188 853.539062 1148.296875 C 852.925781 1098.492188 900.078125 1069.667969 930.183594 1071.890625 C 948.75 1071.941406 1786.375 1071.839844 1788.207031 1071.902344 C 1888.335938 1077.292969 1887.757812 1220.6875 1786.945312 1224.699219 Z M 1786.945312 1224.699219 " fill-opacity="1" fill-rule="nonzero"/><path fill="#b88dbb" d="M 1786.945312 1513.941406 L 929.925781 1513.941406 C 887.738281 1513.941406 853.539062 1479.734375 853.539062 1437.535156 C 852.925781 1387.734375 900.078125 1358.910156 930.183594 1361.132812 C 948.75 1361.183594 1786.375 1361.082031 1788.207031 1361.140625 C 1888.335938 1366.53125 1887.757812 1509.929688 1786.945312 1513.941406 Z M 1786.945312 1513.941406 " fill-opacity="1" fill-rule="nonzero"/><g clip-path="url(#035b921755)"><path fill="#b88dbb" d="M 1786.945312 1803.179688 L 929.925781 1803.179688 C 887.738281 1803.179688 853.539062 1768.972656 853.539062 1726.777344 C 852.925781 1676.976562 900.078125 1648.148438 930.183594 1650.371094 C 948.75 1650.421875 1786.375 1650.320312 1788.207031 1650.382812 C 1888.335938 1655.773438 1887.757812 1799.171875 1786.945312 1803.179688 Z M 1786.945312 1803.179688 " fill-opacity="1" fill-rule="nonzero"/></g></svg>